<?xml version="1.0" encoding="UTF-8" standalone="no"?>
<!DOCTYPE svg PUBLIC "-//W3C//DTD SVG 1.1//EN" "http://www.w3.org/Graphics/SVG/1.1/DTD/svg11.dtd">
<!-- Generated by Microsoft Visio, SVG Export junk.svg The Plant -->
<svg xmlns="http://www.w3.org/2000/svg" xmlns:xlink="http://www.w3.org/1999/xlink" xmlns:ev="http://www.w3.org/2001/xml-events"
		xmlns:v="http://schemas.microsoft.com/visio/2003/SVGExtensions/" width="11in" height="8.5in" viewBox="0 0 792 612"
		xml:space="preserve" color-interpolation-filters="sRGB" class="st15">
	<title>Visual MESA Demo Model</title>
	<v:documentProperties v:langID="1033" v:viewMarkup="false">
		<v:userDefs>
			<v:ud v:nameU="VmProtection" v:val="VT0(0):26"/>
			<v:ud v:nameU="SpecialBlocksVisible" v:val="VT0(0):26"/>
			<v:ud v:nameU="MaxTextSize" v:prompt="" v:val="VT0(0.27777777777778):29"/>
			<v:ud v:nameU="MinTextSize" v:prompt="" v:val="VT0(0.11111111111111):29"/>
			<v:ud v:nameU="msvNoAutoConnect" v:val="VT0(1):26"/>
			<v:ud v:nameU="ModelMastersVersion" v:prompt="" v:val="VT0(40512.456944444):26"/>
			<v:ud v:nameU="msvConvertTheme"/>
		</v:userDefs>
	</v:documentProperties>

	<style type="text/css">
	<![CDATA[
		.st1 {fill:none}
		.st2 {stroke:#000000;stroke-linecap:round;stroke-linejoin:round;stroke-width:0.72;visibility:hidden}
		.st3 {fill:#000000;font-family:Arial;font-size:1.16666em;font-weight:bold;opacity:0}
		.st4 {fill:none;stroke:#000000;stroke-linecap:round;stroke-linejoin:round;stroke-width:0.72}
		.st5 {fill:#000000;font-family:Arial;font-size:1.00001em;font-weight:bold}
		.st6 {fill:#ffffff;visibility:hidden}
		.st7 {stroke:none;stroke-linecap:round;stroke-linejoin:round;stroke-width:0.72}
		.st8 {fill:#000000;font-family:Arial;font-size:1.48084em}
		.st9 {marker-end:url(#mrkr4-21);stroke:#ff0000;stroke-linecap:round;stroke-linejoin:round;stroke-width:2}
		.st10 {fill:#ff0000;fill-opacity:1;stroke:#ff0000;stroke-opacity:1;stroke-width:0.44247787610619}
		.st11 {marker-end:url(#mrkr4-32);stroke:#ff80ff;stroke-linecap:round;stroke-linejoin:round;stroke-width:2}
		.st12 {fill:#ff80ff;fill-opacity:1;stroke:#ff80ff;stroke-opacity:1;stroke-width:0.44247787610619}
		.st13 {fill:#dfdfdf;stroke:#008000;stroke-linecap:round;stroke-linejoin:round;stroke-width:2.16}
		.st14 {fill:#ff8040;stroke:#008000;stroke-linecap:round;stroke-linejoin:round;stroke-width:2.16}
		.st15 {fill:none;fill-rule:evenodd;font-size:12px;overflow:visible;stroke-linecap:square;stroke-miterlimit:3}
		
		.st14a {fill:#ff8040}
		.st14b {stroke:#008000;stroke-linecap:round;stroke-linejoin:round;stroke-width:2.16}
	]]>
	</style>

	<defs id="Markers">
		<g id="lend4">
			<path d="M 2 1 L 0 0 L 2 -1 L 2 1 " style="stroke:none"/>
		</g>
		<marker id="mrkr4-21" class="st10" v:arrowType="4" v:arrowSize="2" v:setback="4.52" refX="-4.52" orient="auto"
				markerUnits="strokeWidth" overflow="visible">
			<use xlink:href="#lend4" transform="scale(-2.26,-2.26) "/>
		</marker>
		<marker id="mrkr4-32" class="st12" v:arrowType="4" v:arrowSize="2" v:setback="4.52" refX="-4.52" orient="auto"
				markerUnits="strokeWidth" overflow="visible">
			<use xlink:href="#lend4" transform="scale(-2.26,-2.26) "/>
		</marker>
	</defs>
	<g v:mID="0" v:index="1" v:groupContext="backgroundPage">
		<title>Visual MESA Background Page</title>
		<v:pageProperties width="11" height="8.5" v:drawingScale="1" v:pageScale="1" v:drawingUnits="19" v:shadowOffsetX="9"
				v:shadowOffsetY="-9"/>
		<g id="shape1-1" v:mID="1" v:groupContext="shape" transform="translate(267.158,-571.875)">
			<title>Title1</title>
			<v:textBlock v:margins="rect(4,4,4,4)"/>
			<v:textRect cx="128.842" cy="600.675" width="257.69" height="22.6497"/>
			<rect x="0" y="589.35" width="257.684" height="22.6497" class="st1"/>
			<rect x="0" y="589.35" width="257.684" height="22.6497" class="st2"/>
			<text x="5.95" y="604.88" class="st3" v:langID="1033"><v:paragraph v:horizAlign="1"/><v:tabList/>VISUAL MESA BACKGROUND PAGE</text>		</g>
		<g id="shape2-5" v:mID="2" v:groupContext="shape" transform="translate(316.318,-549.225)">
			<title>Sheet.2</title>
			<v:textBlock v:margins="rect(4,4,4,4)"/>
			<v:textRect cx="79.6824" cy="600.675" width="159.37" height="22.6497"/>
			<rect x="0" y="589.35" width="159.365" height="22.6497" class="st4"/>
			<text x="5.67" y="604.28" class="st5" v:langID="1033"><v:paragraph v:horizAlign="1"/><v:tabList/>Visual MESA Demo Model</text>		</g>
	</g>
	<g v:mID="4" v:index="2" v:groupContext="foregroundPage">
		<title>The Plant</title>
		<v:pageProperties v:drawingScale="1" v:pageScale="1" v:drawingUnits="19" v:shadowOffsetX="9" v:shadowOffsetY="-9"/>
		<v:layer v:name="Connector" v:index="0"/>
		<v:layer v:name="SpecialBlocks" v:index="1"/>
		<v:layer v:name="SensorLayer" v:index="2"/>
		<v:layer v:name="Equipment" v:index="3"/>
		<v:layer v:name="InvisibleLineLayer" v:index="4" v:visibility="hidden"/>
		
		
		
		<g id="shape2-8" v:mID="2" v:groupContext="shape" transform="translate(1.38403,-498.444)">
		
			<text x="125.87" y="609.4" class="st8" >In222</text>		</g>
			
			
		<g id="shape3-12" v:mID="3" v:groupContext="shape" transform="translate(-15.1509,-337.5)">
			<title>TextBox.181.3</title>
			<v:custProps>
				<v:cp v:nameU="VariableToDisplay" v:lbl="The variable to display is an integer code" v:langID="1033"
						v:val="VT0(1):26"/>
				<v:cp v:nameU="ComponentType" v:langID="1033" v:val="VT0(400):26"/>
			</v:custProps>
			<v:textBlock v:margins="rect(4,4,4,4)"/>
			<v:textRect cx="133.276" cy="604.066" width="266.56" height="15.8672"/>
			<rect x="0" y="596.133" width="266.552" height="15.8672" class="st6"/>
			<rect x="0" y="596.133" width="266.552" height="15.8672" class="st7"/>
			<text x="118.45" y="609.4" class="st8" v:langID="1033"><v:paragraph v:horizAlign="1"/><v:tabList/>220</text>		</g>
		<g id="shape4-16" v:mID="4" v:groupContext="shape" v:layerMember="0" transform="translate(61.2,-409.894)">
			<title>Simple Pipe.182</title>
			<v:custProps>
				<v:cp v:nameU="ComponentType" v:langID="1033" v:val="VT0(1000):26"/>
			</v:custProps>
			<v:userDefs>
				<v:ud v:nameU="SourceGUID" v:prompt="" v:val="VT15({EBEC4149-C60F-4130-AC99-F2F812CF3228}):41"/>
			</v:userDefs>
			<path d="M0 603 L19.76 603" class="st9"/>
		</g>
		<g id="shape9-22" v:mID="9" v:groupContext="shape" v:layerMember="0" transform="translate(179.32,-418.894)">
			<title>Simple Pipe.182.9</title>
			<v:custProps>
				<v:cp v:nameU="ComponentType" v:langID="1033" v:val="VT0(1000):26"/>
			</v:custProps>
			<v:userDefs>
				<v:ud v:nameU="SourceGUID" v:prompt="" v:val="VT15({EDF70677-1207-4962-952C-5619D3AA4FD9}):41"/>
			</v:userDefs>
			<path d="M0 612 L292.07 612 A4.5 4.5 0 0 1 296.57 616.5 L296.57 687.65" class="st9"/>
		</g>
		<g id="shape10-27" v:mID="10" v:groupContext="shape" v:layerMember="0" transform="translate(475.888,-230.651)">
			<title>Simple Pipe.182.10</title>
			<v:custProps>
				<v:cp v:nameU="ComponentType" v:langID="1033" v:val="VT0(1000):26"/>
			</v:custProps>
			<v:userDefs>
				<v:ud v:nameU="SourceGUID" v:prompt="" v:val="VT15({632DB4FC-2972-4908-9C00-CFC135F80E2F}):41"/>
			</v:userDefs>
			<path d="M0 612 L0 668.83 A4.5 4.5 -180 0 0 4.5 673.33 L129.36 673.33 A4.5 4.5 0 0 1 133.86 677.83 L133.86 725.61"
					class="st11"/>
		</g>
		<g id="shape1-33" v:mID="1" v:groupContext="shape" transform="translate(90,-365.86)">
			<title>The inlet source of fluid</title>
			<v:custProps>
				<v:cp v:nameU="ComponentType" v:lbl="ComponentType" v:langID="1033" v:val="VT0(10):26"/>
			</v:custProps>
			<v:userDefs>
				<v:ud v:nameU="SourceGUID" v:prompt="" v:val="VT15({8FEA0869-9FFD-4147-9E80-86302876DFD8}):41"/>
				<vm:dave vm:nameU="test1" v:pp=""/> 
			</v:userDefs>
			<v:textBlock v:margins="rect(4,4,4,4)"/>
			<v:textRect cx="44.6599" cy="558.966" width="89.32" height="106.067"/>
			<path d="M0 522.68 L0 612 L11.16 589.67 L11.16 545.01 L0 522.68 ZM41.78 517.33 L19.81 521.17 A7.37349 7.37349 0 0 1 11.16
						 513.91 A7.37349 7.37349 0 0 1 19.81 506.64 L41.78 510.48 A3.47897 3.47897 0 0 1 44.66 513.91 A3.47897 3.47897
						 0 0 1 41.78 517.33 ZM11.16 575.71 L89.32 575.71 L89.32 556.18 L11.16 556.18 L11.16 575.71 ZM44.66 556.18
						 L55.82 556.18 L55.82 522.68 L44.66 522.68 L44.66 556.18 ZM55.82 514.31 A5.58249 8.37373 -180 1 0 44.66 514.31
						 A5.58249 8.37373 -180 1 0 55.82 514.31 ZM58.71 510.48 L80.68 506.64 A7.37349 7.37349 0 0 1 89.32 513.91
						 A7.37349 7.37349 0 0 1 80.68 521.17 L58.71 517.33 A3.47897 3.47897 0 0 1 55.82 513.91 A3.47897 3.47897 0
						 0 1 58.71 510.48 ZM78.15 600.84 L89.32 600.84 L89.32 575.71 L78.15 575.71 L78.15 600.84 Z" class="st13"/>
		</g>
		<g id="shape6-35" v:mID="6" v:groupContext="shape" transform="translate(450,-230.651)"  class="st14a st14b" >
			<title>a valve to reduce pressure</title>
			<path d="M0 508.45 L51.78 508.45 L0 612 L51.78 612 L0 508.45 Z"  />
		</g>
	</g>
</svg>
